<svg width="14" height="11" viewBox="0 0 14 11" fill="none" xmlns="http://www.w3.org/2000/svg">
<path d="M13.125 0H0.875C0.642936 0 0.420376 0.0956015 0.256282 0.265773C0.0921872 0.435945 0 0.666748 0 0.907407V9.98148C0 10.2221 0.0921872 10.4529 0.256282 10.6231C0.420376 10.7933 0.642936 10.8889 0.875 10.8889H13.125C13.3571 10.8889 13.5796 10.7933 13.7437 10.6231C13.9078 10.4529 14 10.2221 14 9.98148V0.907407C14 0.666748 13.9078 0.435945 13.7437 0.265773C13.5796 0.0956015 13.3571 0 13.125 0V0ZM12.4512 9.98148H1.60125L4.66375 6.69667L4.03375 6.06602L0.875 9.45519V1.59704L6.31313 7.20935C6.47707 7.37836 6.69884 7.47322 6.93 7.47322C7.16116 7.47322 7.38293 7.37836 7.54688 7.20935L13.125 1.45639V9.3962L9.905 6.05694L9.28812 6.69667L12.4512 9.98148ZM1.44812 0.907407H12.4162L6.93 6.56509L1.44812 0.907407Z" fill="#FF1B6F"/>
</svg>
