<svg xmlns="http://www.w3.org/2000/svg" xmlns:xlink="http://www.w3.org/1999/xlink"><symbol id="arrow-left-tablet" viewBox="0 0 28 51">
<path fill-rule="evenodd" clip-rule="evenodd" d="M26.9049 0.303377C27.2897 0.699606 27.2804 1.3327 26.8841 1.71744L2.43549 25.4568L26.8841 49.1962C27.2804 49.581 27.2897 50.2141 26.9049 50.6103C26.5202 51.0065 25.8871 51.0158 25.4909 50.6311L0.303376 26.1743C0.109439 25.986 0 25.7271 0 25.4568C0 25.1865 0.109439 24.9277 0.303376 24.7394L25.4909 0.282564C25.8871 -0.102171 26.5202 -0.0928525 26.9049 0.303377Z" fill="black"/>
</symbol><symbol id="arrow-left" viewBox="0 0 14 26">
<path fill-rule="evenodd" clip-rule="evenodd" d="M13.7071 0.292893C14.0976 0.683417 14.0976 1.31658 13.7071 1.70711L2.41421 13L13.7071 24.2929C14.0976 24.6834 14.0976 25.3166 13.7071 25.7071C13.3166 26.0976 12.6834 26.0976 12.2929 25.7071L0.292893 13.7071C-0.0976311 13.3166 -0.0976311 12.6834 0.292893 12.2929L12.2929 0.292893C12.6834 -0.0976311 13.3166 -0.0976311 13.7071 0.292893Z" fill="black"/>
</symbol><symbol id="arrow-right-tablet" viewBox="0 0 28 51">
<path fill-rule="evenodd" clip-rule="evenodd" d="M0.282562 50.6103C-0.102173 50.2141 -0.0928553 49.581 0.303373 49.1963L24.752 25.4569L0.303378 1.71748C-0.0928512 1.33275 -0.102169 0.699647 0.282567 0.303419C0.667302 -0.0928102 1.3004 -0.102129 1.69663 0.282606L26.8841 24.7394C27.0781 24.9277 27.1875 25.1866 27.1875 25.4569C27.1875 25.7272 27.0781 25.986 26.8841 26.1743L1.69662 50.6311C1.30039 51.0159 0.667297 51.0065 0.282562 50.6103Z" fill="black"/>
</symbol><symbol id="arrow-right" viewBox="0 0 14 26">
<path fill-rule="evenodd" clip-rule="evenodd" d="M0.292893 25.7071C-0.0976314 25.3166 -0.0976313 24.6834 0.292894 24.2929L11.5858 13L0.292896 1.70711C-0.0976293 1.31658 -0.0976292 0.683417 0.292896 0.292891C0.68342 -0.0976326 1.31658 -0.0976326 1.70711 0.292891L13.7071 12.2929C14.0976 12.6834 14.0976 13.3166 13.7071 13.7071L1.70711 25.7071C1.31658 26.0976 0.683417 26.0976 0.292893 25.7071Z" fill="black"/>
</symbol><symbol id="cart-icon" viewBox="0 0 24 23">
<path fill-rule="evenodd" clip-rule="evenodd" d="M7 21C7 19.8954 7.89543 19 9 19C10.1046 19 11 19.8954 11 21C11 22.1046 10.1046 23 9 23C7.89543 23 7 22.1046 7 21Z"/>
<path fill-rule="evenodd" clip-rule="evenodd" d="M18 21C18 19.8954 18.8954 19 20 19C21.1046 19 22 19.8954 22 21C22 22.1046 21.1046 23 20 23C18.8954 23 18 22.1046 18 21Z"/>
<path fill-rule="evenodd" clip-rule="evenodd" d="M0 1C0 0.447715 0.447715 0 1 0H5C5.47663 0 5.88701 0.336385 5.98055 0.803743L6.82043 5H23C23.298 5 23.5805 5.13293 23.7705 5.36256C23.9605 5.59218 24.0381 5.89458 23.9823 6.18733L22.3809 14.5848C22.2437 15.2754 21.868 15.8958 21.3195 16.3373C20.7738 16.7766 20.0916 17.011 19.3914 17H9.68864C8.98838 17.011 8.3062 16.7766 7.76048 16.3373C7.21225 15.8959 6.83664 15.2759 6.69933 14.5857V14.5857L5.02879 6.2392C5.02201 6.21159 5.01638 6.18353 5.01195 6.15508L4.18032 2H1C0.447715 2 0 1.55228 0 1ZM7.22073 7L8.66084 14.1952C8.70656 14.4254 8.83179 14.6322 9.01461 14.7793C9.19743 14.9265 9.42619 15.0047 9.66084 15.0002L9.68 15H19.4L19.4192 15.0002C19.6538 15.0047 19.8826 14.9265 20.0654 14.7793C20.2474 14.6328 20.3723 14.4273 20.4185 14.1984L21.7913 7H7.22073Z"/>
</symbol><symbol id="location" viewBox="0 0 14 17">
<path fill-rule="evenodd" clip-rule="evenodd" d="M7 1.5001C5.51479 1.5001 4.09041 2.0901 3.0402 3.1403C1.99 4.1905 1.4 5.61489 1.4 7.1001C1.4 9.26874 2.81102 11.3731 4.35817 13.0062C5.11743 13.8076 5.87907 14.4637 6.45167 14.9197C6.66478 15.0894 6.85092 15.2307 7 15.3409C7.14908 15.2307 7.33522 15.0894 7.54833 14.9197C8.12093 14.4637 8.88257 13.8076 9.64183 13.0062C11.189 11.3731 12.6 9.26874 12.6 7.1001C12.6 5.61489 12.01 4.1905 10.9598 3.1403C9.90959 2.0901 8.48521 1.5001 7 1.5001ZM7 16.2001C6.61171 16.7825 6.61153 16.7824 6.61133 16.7823L6.60933 16.7809L6.60467 16.7778L6.58862 16.767C6.57499 16.7577 6.55555 16.7444 6.53069 16.7272C6.48097 16.6928 6.40952 16.6426 6.31945 16.5775C6.13938 16.4475 5.88445 16.2577 5.57958 16.0149C4.97093 15.5302 4.15757 14.8301 3.34183 13.969C1.73898 12.2771 0 9.83146 0 7.1001C4.17233e-08 5.24358 0.737498 3.4631 2.05025 2.15035C3.36301 0.837595 5.14348 0.100098 7 0.100098C8.85651 0.100098 10.637 0.837595 11.9497 2.15035C13.2625 3.4631 14 5.24358 14 7.1001C14 9.83146 12.261 12.2771 10.6582 13.969C9.84243 14.8301 9.02907 15.5302 8.42042 16.0149C8.11555 16.2577 7.86062 16.4475 7.68055 16.5775C7.59048 16.6426 7.51903 16.6928 7.46931 16.7272C7.44445 16.7444 7.42501 16.7577 7.41138 16.767L7.39533 16.7778L7.39067 16.7809L7.38919 16.7819C7.38899 16.7821 7.38829 16.7825 7 16.2001ZM7 16.2001L7.38829 16.7825C7.15316 16.9393 6.84646 16.939 6.61133 16.7823L7 16.2001ZM7 5.7001C6.2268 5.7001 5.6 6.3269 5.6 7.1001C5.6 7.8733 6.2268 8.5001 7 8.5001C7.7732 8.5001 8.4 7.8733 8.4 7.1001C8.4 6.3269 7.7732 5.7001 7 5.7001ZM4.2 7.1001C4.2 5.5537 5.4536 4.3001 7 4.3001C8.5464 4.3001 9.8 5.5537 9.8 7.1001C9.8 8.64649 8.5464 9.9001 7 9.9001C5.4536 9.9001 4.2 8.64649 4.2 7.1001Z"/>
</symbol><symbol id="mail" viewBox="0 0 14 11">
<path d="M13.125 0H0.875C0.642936 0 0.420376 0.0956015 0.256282 0.265773C0.0921872 0.435945 0 0.666748 0 0.907407V9.98148C0 10.2221 0.0921872 10.4529 0.256282 10.6231C0.420376 10.7933 0.642936 10.8889 0.875 10.8889H13.125C13.3571 10.8889 13.5796 10.7933 13.7437 10.6231C13.9078 10.4529 14 10.2221 14 9.98148V0.907407C14 0.666748 13.9078 0.435945 13.7437 0.265773C13.5796 0.0956015 13.3571 0 13.125 0V0ZM12.4512 9.98148H1.60125L4.66375 6.69667L4.03375 6.06602L0.875 9.45519V1.59704L6.31313 7.20935C6.47707 7.37836 6.69884 7.47322 6.93 7.47322C7.16116 7.47322 7.38293 7.37836 7.54688 7.20935L13.125 1.45639V9.3962L9.905 6.05694L9.28812 6.69667L12.4512 9.98148ZM1.44812 0.907407H12.4162L6.93 6.56509L1.44812 0.907407Z" fill="#FF1B6F"/>
</symbol><symbol id="more-icon" viewBox="0 0 20 20">
<path fill-rule="evenodd" clip-rule="evenodd" d="M12 1C12 0.447715 12.4477 1.49012e-08 13 1.49012e-08H19C19.5523 1.49012e-08 20 0.447715 20 1V7C20 7.55228 19.5523 8 19 8C18.4477 8 18 7.55228 18 7V2H13C12.4477 2 12 1.55228 12 1Z"/>
<path fill-rule="evenodd" clip-rule="evenodd" d="M19.7071 0.292893C20.0976 0.683417 20.0976 1.31658 19.7071 1.70711L12.7071 8.70711C12.3166 9.09763 11.6834 9.09763 11.2929 8.70711C10.9024 8.31658 10.9024 7.68342 11.2929 7.29289L18.2929 0.292893C18.6834 -0.0976311 19.3166 -0.0976311 19.7071 0.292893Z"/>
<path fill-rule="evenodd" clip-rule="evenodd" d="M1 12C1.55228 12 2 12.4477 2 13V18H7C7.55228 18 8 18.4477 8 19C8 19.5523 7.55228 20 7 20H1C0.447715 20 2.98023e-08 19.5523 2.98023e-08 19V13C2.98023e-08 12.4477 0.447715 12 1 12Z"/>
<path fill-rule="evenodd" clip-rule="evenodd" d="M8.70711 11.2929C9.09763 11.6834 9.09763 12.3166 8.70711 12.7071L1.70711 19.7071C1.31658 20.0976 0.683417 20.0976 0.292893 19.7071C-0.0976311 19.3166 -0.0976311 18.6834 0.292893 18.2929L7.29289 11.2929C7.68342 10.9024 8.31658 10.9024 8.70711 11.2929Z"/>
</symbol><symbol id="phone" viewBox="0 0 11 14">
<path d="M2.83574 0.0741563L2.20819 0.26321C1.64941 0.43172 1.1504 0.756348 0.769887 1.19888C0.389374 1.64142 0.143197 2.18345 0.0603312 2.76117C-0.199618 4.57118 0.381547 6.68753 1.78282 9.1146C3.18059 11.5355 4.71928 13.0952 6.41288 13.7779C6.95705 13.9972 7.55275 14.0557 8.12916 13.9463C8.70557 13.8369 9.23844 13.5643 9.66443 13.1609L10.1388 12.711C10.4469 12.4195 10.6386 12.026 10.6783 11.6037C10.7181 11.1815 10.6032 10.7591 10.355 10.4152L9.16816 8.76975C9.00771 8.5476 8.78176 8.38124 8.52199 8.29397C8.26222 8.2067 7.98166 8.2029 7.71963 8.28311L5.92449 8.83189L5.87811 8.84064C5.6803 8.86953 5.22342 8.44153 4.65451 7.456C4.05934 6.42496 3.93681 5.82191 4.10048 5.66612L5.01336 4.8145C5.34719 4.50332 5.57523 4.09543 5.66549 3.64807C5.75574 3.20071 5.70369 2.73632 5.51663 2.32004L4.93721 1.03255C4.76298 0.645118 4.45381 0.334261 4.06733 0.157928C3.68085 -0.0184041 3.24343 -0.0481783 2.83662 0.0741563H2.83574ZM4.13986 1.3914L4.71753 2.67889C4.83003 2.92854 4.86149 3.20717 4.80748 3.47561C4.75348 3.74406 4.61673 3.98884 4.41644 4.17557L3.50093 5.02806C2.91539 5.58297 3.1097 6.52999 3.89742 7.89362C4.63788 9.17674 5.31357 9.81042 6.04003 9.70014L6.14856 9.67738L7.97608 9.11985C8.06343 9.09301 8.15699 9.0942 8.24364 9.12324C8.33029 9.15228 8.40567 9.20771 8.45921 9.28177L9.64605 10.9272C9.77033 11.0992 9.82792 11.3104 9.80812 11.5216C9.78831 11.7329 9.69246 11.9297 9.53839 12.0756L9.06313 12.5254C8.75885 12.8134 8.37829 13.008 7.96667 13.086C7.55505 13.1641 7.12968 13.1223 6.7411 12.9657C5.25493 12.367 3.85016 10.943 2.54166 8.67697C1.22966 6.4057 0.698387 4.47403 0.926827 2.88545C0.985961 2.47271 1.16179 2.08546 1.43361 1.76929C1.70544 1.45312 2.06194 1.22119 2.46114 1.10082L3.08869 0.911769C3.29215 0.850632 3.5109 0.865582 3.70415 0.953832C3.8974 1.04208 4.05195 1.19761 4.13899 1.3914H4.13986Z" fill="#FF1B6F"/>
</symbol><symbol id="work-hourses" viewBox="0 0 20 19">
<path fill-rule="evenodd" clip-rule="evenodd" d="M10.9596 1.23306L11.2782 1.25467C11.3134 0.830478 11.3465 0.437664 11.3834 0.0023016C11.3306 0.0023016 11.2803 0.00168344 11.2318 0.00108783C11.1087 -0.000423557 10.9974 -0.00178967 10.8871 0.0074589C10.8436 0.0113269 10.7714 0.0753633 10.7706 0.113184C10.7639 0.39322 10.7645 0.673515 10.7651 0.963862V0.963916V0.96397V0.964025V0.964079V0.964134V0.964189V0.964245V0.964301V0.964357V0.964414V0.96447V0.964528V0.964585V0.964758V0.965023V0.965289V0.965556V0.965825V0.966095V0.966367V0.966639V0.966913V0.967188V0.967464V0.967743V0.968022V0.968303V0.968585C10.7653 1.05144 10.7654 1.13512 10.7654 1.21985L10.9596 1.23306ZM5.27764 1.63029L5.46988 1.50599C5.5789 1.43548 5.68502 1.36684 5.79895 1.29334L5.89025 1.44838C6.0673 1.74905 6.24054 2.04326 6.42256 2.35188L6.17559 2.51379L5.97473 2.64542C5.81791 2.41745 5.66483 2.19439 5.50764 1.96536L5.5069 1.96428L5.27764 1.63029ZM18.4593 11.7446L18.5226 11.7629C18.8612 11.8609 19.1902 11.956 19.5191 12.0523C19.5408 12.0585 19.5612 12.069 19.5852 12.0813C19.5978 12.0877 19.6113 12.0947 19.6265 12.1018C19.4168 12.8203 19.1327 13.4985 18.7511 14.1303C17.1575 16.767 14.8444 18.3421 11.7849 18.7697C7.8984 19.3129 3.95995 17.2161 2.18584 13.6868C1.25193 11.8293 0.961836 9.87337 1.3005 7.82506C1.32543 7.67335 1.28159 7.6235 1.14922 7.58224C0.890121 7.50182 0.632725 7.41545 0.35803 7.32326L0.358008 7.32326L0.3577 7.32315C0.242009 7.28433 0.123249 7.24448 0 7.20361C0.966134 6.427 1.90347 5.67318 2.87391 4.89271C3.18592 6.08791 3.48977 7.25217 3.80437 8.45855L3.30252 8.29619L2.53997 8.04941C1.90605 10.962 3.29938 15.2838 7.51462 17.0076C12.0045 18.8445 17.053 16.357 18.4593 11.7446ZM6.20601 10.9713H6.2068C6.656 10.9706 7.078 10.9699 7.5 10.9749C7.62592 10.9762 7.75658 11.0011 7.87562 11.0424C8.02476 11.0939 8.12919 11.2276 8.08235 11.3746C8.04281 11.4996 7.92634 11.6101 7.82147 11.7012C7.78113 11.7362 7.70403 11.7344 7.63449 11.7328C7.62031 11.7325 7.60644 11.7321 7.59326 11.7321C6.77024 11.7339 5.94679 11.7347 5.12377 11.7321C4.59085 11.7304 4.37554 11.4038 4.64286 10.9461C4.7907 10.6934 5.01246 10.4742 5.23294 10.2761C5.43353 10.096 5.64316 9.92632 5.85281 9.75658C6.04203 9.60338 6.23129 9.45017 6.41396 9.28931C6.60478 9.12169 6.78872 8.93216 6.92539 8.72028C7.20346 8.28793 7.07796 7.81131 6.66323 7.60029C6.20939 7.3695 5.66658 7.5586 5.47017 8.01459L5.44188 8.0807C5.39242 8.19665 5.34281 8.31298 5.28107 8.42202C5.17363 8.61284 4.99527 8.65539 4.79886 8.59522C4.60976 8.53763 4.53928 8.39194 4.54229 8.19682C4.55045 7.68367 4.94327 7.17395 5.51229 6.9797C6.05123 6.79575 6.59919 6.79747 7.1334 6.99517C7.99252 7.3132 8.29551 8.36572 7.70672 9.08301C7.4998 9.335 7.24762 9.55025 6.99572 9.76526L6.99566 9.7653C6.89442 9.85172 6.79323 9.93809 6.69503 10.0268C6.54709 10.1602 6.39691 10.2913 6.24677 10.4224C6.11776 10.5351 5.98878 10.6477 5.86127 10.7617C5.82985 10.7901 5.80417 10.8251 5.76854 10.8737C5.74812 10.9015 5.72443 10.9338 5.69452 10.9719C5.86822 10.9719 6.0369 10.9716 6.20189 10.9713H6.20273H6.20357H6.20439H6.2052H6.20601ZM11.5749 10.9285V10.9285V10.9284V10.9283V10.9283V10.9282V10.9282V10.9281V10.928V10.928V10.9279V10.9279V10.9278V10.9277V10.9277V10.9276V10.9275V10.9274V10.9274V10.9273V10.9272C11.5737 10.8572 11.5726 10.7863 11.5726 10.7144C11.6283 10.7086 11.6807 10.7039 11.7305 10.6995L11.7305 10.6995C11.8396 10.6897 11.9367 10.681 12.032 10.6642C12.2189 10.6311 12.3174 10.5155 12.3165 10.3199C12.3156 10.1128 12.179 10.0328 12.0075 9.99629C11.9181 9.97738 11.8223 9.97909 11.7298 9.98511C11.6082 9.99285 11.5597 9.9387 11.5609 9.82309L11.561 9.8206C11.5644 9.49996 11.5678 9.17975 11.5691 8.85953C11.5695 8.73331 11.5703 8.60709 11.571 8.48088C11.5732 8.09181 11.5755 7.70282 11.5687 7.31406C11.5652 7.11164 11.4875 6.93027 11.2726 6.85979C11.0594 6.79016 10.8608 6.81767 10.7044 6.9956C10.6099 7.10261 10.5175 7.2122 10.4294 7.3248C10.2164 7.5967 10.0039 7.86899 9.7915 8.14127L9.79145 8.14134C9.37964 8.66913 8.96786 9.19689 8.55252 9.72166L8.52067 9.76167C8.37179 9.94802 8.22609 10.1304 8.34322 10.3891C8.46614 10.662 8.72486 10.6826 8.98015 10.696C9.0088 10.6974 9.03745 10.6969 9.0661 10.6964C9.08043 10.6962 9.09476 10.696 9.10908 10.696C9.23795 10.696 9.36681 10.6966 9.49567 10.6972C9.82492 10.6987 10.1541 10.7003 10.4831 10.6917C10.6662 10.6869 10.747 10.7312 10.7289 10.928C10.7139 11.0909 10.6992 11.2646 10.7401 11.4188C10.7745 11.5495 10.8613 11.7042 10.9717 11.7691C11.2433 11.9294 11.5463 11.7291 11.5695 11.3879C11.5799 11.2366 11.5774 11.0845 11.5749 10.9285ZM10.713 8.08121V9.95975H9.18558L9.70095 9.30114L10.6679 8.06531L10.6904 8.07325L10.713 8.08121ZM16.432 7.74513C16.3937 7.74322 16.3601 7.74115 16.3297 7.73926C16.2777 7.73603 16.2346 7.73336 16.1918 7.73309C16.0415 7.73281 15.8913 7.7329 15.7411 7.733H15.7405C15.4397 7.73319 15.1388 7.73338 14.838 7.73051C14.7318 7.72965 14.6214 7.71977 14.5208 7.68882C14.3343 7.63123 14.2819 7.47995 14.2887 7.29902C14.2956 7.11636 14.3988 7.02912 14.572 7.01107C14.595 7.00863 14.6181 7.00581 14.6411 7.00298C14.7034 6.99537 14.7657 6.98775 14.8281 6.98743C15.4869 6.98528 16.1458 6.98313 16.8046 6.98829L16.8415 6.98849C17.0366 6.98927 17.2438 6.9901 17.3509 7.20232C17.4586 7.41567 17.3444 7.59018 17.231 7.76333L17.2224 7.7765C17.1502 7.88704 17.0765 7.99675 17.0027 8.10648L17.0027 8.1065L17.0027 8.10652L17.0027 8.10654L17.0027 8.10655L17.0027 8.10657L17.0026 8.10659L17.0026 8.1066L17.0026 8.10662L17.0026 8.10664L17.0026 8.10666L17.0026 8.10667L17.0026 8.10669L17.0026 8.10671L17.0026 8.10672L17.0025 8.10674L17.0025 8.10676L17.0025 8.10678L17.0025 8.10679L17.0025 8.10681L17.0024 8.10691C16.8047 8.40107 16.6068 8.69538 16.4398 9.00609C16.1148 9.61078 15.9644 10.2752 15.8823 10.956C15.8604 11.1391 15.8136 11.3217 15.7547 11.4966C15.6872 11.6956 15.5282 11.7932 15.3189 11.77C15.1148 11.7472 14.9734 11.6114 14.9815 11.4145C14.9949 11.0896 15.0163 10.7557 15.104 10.4454C15.358 9.54545 15.7646 8.71212 16.3044 7.94626C16.3295 7.91061 16.3524 7.87355 16.3801 7.82855L16.3801 7.82847L16.3803 7.82814C16.3957 7.80326 16.4125 7.77596 16.432 7.74513ZM12.4378 11.5049L12.3449 12.0257C12.3534 12.2685 12.4308 12.3893 12.6092 12.4159C12.7811 12.4421 12.8868 12.3446 12.9461 12.1048C12.952 12.0808 12.9563 12.0568 12.9607 12.0325L12.9629 12.0205L13.0511 11.5323L13.0514 11.531L13.0514 11.5309L13.0514 11.5308L13.0514 11.5307L13.0514 11.5306L13.0514 11.5306L13.0514 11.5305L13.0515 11.5304L13.0515 11.5303L13.0515 11.5302L13.0515 11.5301L13.0515 11.5301L13.0515 11.53L13.0515 11.5299L13.0516 11.5298L13.0516 11.5297L13.0516 11.5296L13.0516 11.5296C13.1275 11.1092 13.2034 10.6889 13.2805 10.2688C13.3413 9.93607 13.4024 9.60344 13.4636 9.27083L13.4637 9.27031L13.4637 9.26978L13.4638 9.26925L13.4639 9.26872L13.464 9.26819L13.4641 9.26766L13.4642 9.26713L13.4643 9.26677L13.4644 9.26641L13.4644 9.26604L13.4645 9.26568L13.4646 9.26532L13.4646 9.26495L13.4647 9.26459L13.4648 9.26423L13.4648 9.26386L13.4649 9.2635L13.465 9.26313L13.465 9.26277L13.4651 9.26241L13.4652 9.26204L13.4652 9.26168L13.4653 9.26132L13.4654 9.26095L13.4654 9.26059C13.6194 8.42235 13.7734 7.58424 13.9234 6.74547C13.9428 6.63717 13.9505 6.50093 13.9006 6.41325C13.8504 6.32429 13.7262 6.23963 13.6264 6.22888C13.5547 6.22157 13.4489 6.32515 13.3965 6.40466C13.3519 6.472 13.3365 6.56116 13.3218 6.64666C13.3192 6.66156 13.3167 6.67635 13.314 6.69089C13.0828 7.94798 12.8533 9.2055 12.6246 10.463C12.5616 10.8101 12.4997 11.1575 12.4378 11.5049ZM19.0882 5.34423L18.9845 5.12693C18.9035 5.16828 18.8235 5.20889 18.7444 5.24906C18.489 5.37883 18.2424 5.50409 17.9985 5.63536C17.9612 5.65556 17.9242 5.7428 17.938 5.78019C17.9726 5.8751 18.0188 5.9657 18.0674 6.06089C18.0857 6.09674 18.1043 6.13323 18.1228 6.17086L18.5073 6.00535L19.2509 5.68521L19.0882 5.34423ZM19.2524 8.56126L19.2519 8.5613L18.7498 8.61026L18.7126 8.33714L18.678 8.08336C19.0803 8.01417 19.4684 7.94755 19.8853 7.87621L19.9759 8.49079C19.7284 8.51479 19.4901 8.53804 19.2524 8.56126ZM8.24996 1.56281L8.01773 0.792426L7.89453 0.383942L8.49321 0.221487L8.58658 0.634837L8.76397 1.4197C8.58991 1.46783 8.43433 1.51124 8.24996 1.56281ZM4.98668 3.43535C5.12506 3.31372 5.25142 3.20241 5.39023 3.07992L4.60976 2.12969L4.14475 2.53755C4.43313 2.84526 4.70474 3.13493 4.98668 3.43535ZM19.5457 6.46397L19.6199 6.71567L19.7215 7.0605C19.3154 7.1645 18.932 7.26292 18.5336 7.36564L18.4655 7.14599L18.3759 6.85721C18.7592 6.72785 19.1344 6.60193 19.5457 6.46397ZM12.0036 1.34234L12.5262 1.45107C12.5875 1.19811 12.6469 0.953456 12.7067 0.70698L12.7096 0.695209L12.7103 0.692127L12.7106 0.690851L12.8168 0.253721L12.2116 0.130375L12.1148 0.694629L12.1148 0.694681C12.0776 0.91073 12.0409 1.1246 12.0036 1.34234ZM14.85 2.41377L14.6629 2.30813C14.572 2.25685 14.4836 2.20695 14.3859 2.15161L14.4919 1.94738L14.9532 1.05912L15.2034 1.19943L15.4942 1.36254L15.4004 1.51556L15.3993 1.51733C15.2138 1.81992 15.0349 2.11166 14.85 2.41377ZM17.7029 3.23249L17.2976 2.79498C17.1318 2.96389 16.9714 3.12686 16.8116 3.28926L16.8106 3.29033L16.4346 3.67258L16.778 4.0366C16.9875 3.85413 17.1895 3.67864 17.3919 3.50276L17.7029 3.23249ZM17.2271 4.61206L17.6669 4.29184L18.2229 3.88703L18.3921 4.13543L18.5719 4.39933C18.3818 4.51871 18.197 4.63463 18.0121 4.75054L18.0109 4.75134L17.5314 5.05215L17.4344 4.91183L17.2271 4.61206ZM9.9321 0.0173442L9.31365 0.0732149L9.36731 0.456733L9.36745 0.457737L9.36822 0.463234L9.36886 0.467815C9.40819 0.748881 9.44626 1.02091 9.48513 1.29979C9.62514 1.28292 9.74765 1.26786 9.87151 1.25263L9.87157 1.25263L9.87173 1.25261L9.87177 1.2526L9.8718 1.2526L10.0125 1.23533L9.97228 0.626337L9.9321 0.0173442ZM13.2246 1.65479C13.3565 1.26455 13.4842 0.887209 13.6187 0.490957L14.1985 0.702836L14.117 0.899701L14.1166 0.900632C13.9859 1.21634 13.8592 1.5222 13.7279 1.84045C13.5845 1.78733 13.4521 1.73859 13.3141 1.68774L13.3139 1.68768L13.2246 1.65479ZM18.6097 11.1266C19.015 11.2126 19.4018 11.2946 19.8161 11.3827L19.9188 10.7712L19.2495 10.6788L18.7021 10.6031L18.6522 10.8858L18.6097 11.1266ZM7.06808 2.01236L7.00723 1.88518C6.85201 1.56081 6.70127 1.2458 6.53774 0.903538L6.98148 0.708148L7.10375 0.654268L7.16587 0.809401C7.29833 1.14019 7.427 1.46154 7.56275 1.79962C7.42975 1.85701 7.30444 1.91084 7.17056 1.96834L7.17036 1.96843L7.17016 1.96851L7.17005 1.96856L7.06808 2.01236ZM20 9.93784V9.35506H19.9973C19.5865 9.35506 19.1881 9.35506 18.7902 9.35463V9.87638L19.3733 9.90601L20 9.93784ZM15.8767 3.1504L15.4547 2.82076C15.5878 2.64029 15.7174 2.46417 15.8488 2.28562L15.8497 2.28436L16.1832 1.83142L16.6701 2.21134C16.3998 2.53153 16.1432 2.83538 15.8767 3.1504ZM3.36509 3.3696C3.30007 3.44756 3.23452 3.52615 3.16486 3.60983C3.44447 3.82719 3.70642 4.0313 3.97045 4.23703C4.02539 4.27984 4.08042 4.32272 4.13572 4.3658C4.23131 4.24961 4.31548 4.14776 4.40263 4.0423C4.42637 4.01357 4.45034 3.98457 4.47481 3.95494C4.3925 3.88108 4.31122 3.80814 4.23041 3.73563C4.00745 3.53554 3.78812 3.33871 3.56068 3.13493C3.49366 3.21543 3.42964 3.2922 3.36509 3.3696Z"/>
</symbol></svg>