<svg width="19" height="19" viewBox="0 0 19 19" fill="none" xmlns="http://www.w3.org/2000/svg">
<path fill-rule="evenodd" clip-rule="evenodd" d="M18.725 0.433065C18.9203 0.628325 18.9203 0.944908 18.725 1.14017L10.3549 9.51038L18.7253 17.8806C18.9205 18.0758 18.9205 18.3924 18.7253 18.5877C18.53 18.783 18.2134 18.783 18.0182 18.5877L9.64783 10.2175L1.27836 18.5871C1.0831 18.7824 0.766518 18.7824 0.571254 18.5871C0.37599 18.3918 0.375988 18.0753 0.571248 17.88L8.94072 9.51039L0.571254 1.14106C0.37599 0.945803 0.375988 0.62922 0.571248 0.433957C0.766509 0.238693 1.08309 0.23869 1.27836 0.433951L9.64782 8.80328L18.0179 0.433071C18.2131 0.237807 18.5297 0.237804 18.725 0.433065Z" fill="white"/>
</svg>
