<svg  viewBox="0 0 20 20" fill="none" xmlns="http://www.w3.org/2000/svg">
<path fill-rule="evenodd" clip-rule="evenodd" d="M12 1C12 0.447715 12.4477 1.49012e-08 13 1.49012e-08H19C19.5523 1.49012e-08 20 0.447715 20 1V7C20 7.55228 19.5523 8 19 8C18.4477 8 18 7.55228 18 7V2H13C12.4477 2 12 1.55228 12 1Z"/>
<path fill-rule="evenodd" clip-rule="evenodd" d="M19.7071 0.292893C20.0976 0.683417 20.0976 1.31658 19.7071 1.70711L12.7071 8.70711C12.3166 9.09763 11.6834 9.09763 11.2929 8.70711C10.9024 8.31658 10.9024 7.68342 11.2929 7.29289L18.2929 0.292893C18.6834 -0.0976311 19.3166 -0.0976311 19.7071 0.292893Z" />
<path fill-rule="evenodd" clip-rule="evenodd" d="M1 12C1.55228 12 2 12.4477 2 13V18H7C7.55228 18 8 18.4477 8 19C8 19.5523 7.55228 20 7 20H1C0.447715 20 2.98023e-08 19.5523 2.98023e-08 19V13C2.98023e-08 12.4477 0.447715 12 1 12Z" />
<path fill-rule="evenodd" clip-rule="evenodd" d="M8.70711 11.2929C9.09763 11.6834 9.09763 12.3166 8.70711 12.7071L1.70711 19.7071C1.31658 20.0976 0.683417 20.0976 0.292893 19.7071C-0.0976311 19.3166 -0.0976311 18.6834 0.292893 18.2929L7.29289 11.2929C7.68342 10.9024 8.31658 10.9024 8.70711 11.2929Z"/>
</svg>
