<svg width="20" height="19" viewBox="0 0 20 19" fill="none" xmlns="http://www.w3.org/2000/svg">
<path fill-rule="evenodd" clip-rule="evenodd" d="M10.9596 1.23306L11.2782 1.25467C11.3134 0.830478 11.3465 0.437664 11.3834 0.0023016C11.3306 0.0023016 11.2803 0.00168344 11.2318 0.00108783C11.1087 -0.000423557 10.9974 -0.00178967 10.8871 0.0074589C10.8436 0.0113269 10.7714 0.0753633 10.7706 0.113184C10.7639 0.39322 10.7645 0.673515 10.7651 0.963862V0.963916V0.96397V0.964025V0.964079V0.964134V0.964189V0.964245V0.964301V0.964357V0.964414V0.96447V0.964528V0.964585V0.964758V0.965023V0.965289V0.965556V0.965825V0.966095V0.966367V0.966639V0.966913V0.967188V0.967464V0.967743V0.968022V0.968303V0.968585C10.7653 1.05144 10.7654 1.13512 10.7654 1.21985L10.9596 1.23306ZM5.27764 1.63029L5.46988 1.50599C5.5789 1.43548 5.68502 1.36684 5.79895 1.29334L5.89025 1.44838C6.0673 1.74905 6.24054 2.04326 6.42256 2.35188L6.17559 2.51379L5.97473 2.64542C5.81791 2.41745 5.66483 2.19439 5.50764 1.96536L5.5069 1.96428L5.27764 1.63029ZM18.4593 11.7446L18.5226 11.7629C18.8612 11.8609 19.1902 11.956 19.5191 12.0523C19.5408 12.0585 19.5612 12.069 19.5852 12.0813C19.5978 12.0877 19.6113 12.0947 19.6265 12.1018C19.4168 12.8203 19.1327 13.4985 18.7511 14.1303C17.1575 16.767 14.8444 18.3421 11.7849 18.7697C7.8984 19.3129 3.95995 17.2161 2.18584 13.6868C1.25193 11.8293 0.961836 9.87337 1.3005 7.82506C1.32543 7.67335 1.28159 7.6235 1.14922 7.58224C0.890121 7.50182 0.632725 7.41545 0.35803 7.32326L0.358008 7.32326L0.3577 7.32315C0.242009 7.28433 0.123249 7.24448 0 7.20361C0.966134 6.427 1.90347 5.67318 2.87391 4.89271C3.18592 6.08791 3.48977 7.25217 3.80437 8.45855L3.30252 8.29619L2.53997 8.04941C1.90605 10.962 3.29938 15.2838 7.51462 17.0076C12.0045 18.8445 17.053 16.357 18.4593 11.7446ZM6.20601 10.9713H6.2068C6.656 10.9706 7.078 10.9699 7.5 10.9749C7.62592 10.9762 7.75658 11.0011 7.87562 11.0424C8.02476 11.0939 8.12919 11.2276 8.08235 11.3746C8.04281 11.4996 7.92634 11.6101 7.82147 11.7012C7.78113 11.7362 7.70403 11.7344 7.63449 11.7328C7.62031 11.7325 7.60644 11.7321 7.59326 11.7321C6.77024 11.7339 5.94679 11.7347 5.12377 11.7321C4.59085 11.7304 4.37554 11.4038 4.64286 10.9461C4.7907 10.6934 5.01246 10.4742 5.23294 10.2761C5.43353 10.096 5.64316 9.92632 5.85281 9.75658C6.04203 9.60338 6.23129 9.45017 6.41396 9.28931C6.60478 9.12169 6.78872 8.93216 6.92539 8.72028C7.20346 8.28793 7.07796 7.81131 6.66323 7.60029C6.20939 7.3695 5.66658 7.5586 5.47017 8.01459L5.44188 8.0807C5.39242 8.19665 5.34281 8.31298 5.28107 8.42202C5.17363 8.61284 4.99527 8.65539 4.79886 8.59522C4.60976 8.53763 4.53928 8.39194 4.54229 8.19682C4.55045 7.68367 4.94327 7.17395 5.51229 6.9797C6.05123 6.79575 6.59919 6.79747 7.1334 6.99517C7.99252 7.3132 8.29551 8.36572 7.70672 9.08301C7.4998 9.335 7.24762 9.55025 6.99572 9.76526L6.99566 9.7653C6.89442 9.85172 6.79323 9.93809 6.69503 10.0268C6.54709 10.1602 6.39691 10.2913 6.24677 10.4224C6.11776 10.5351 5.98878 10.6477 5.86127 10.7617C5.82985 10.7901 5.80417 10.8251 5.76854 10.8737C5.74812 10.9015 5.72443 10.9338 5.69452 10.9719C5.86822 10.9719 6.0369 10.9716 6.20189 10.9713H6.20273H6.20357H6.20439H6.2052H6.20601ZM11.5749 10.9285V10.9285V10.9284V10.9283V10.9283V10.9282V10.9282V10.9281V10.928V10.928V10.9279V10.9279V10.9278V10.9277V10.9277V10.9276V10.9275V10.9274V10.9274V10.9273V10.9272C11.5737 10.8572 11.5726 10.7863 11.5726 10.7144C11.6283 10.7086 11.6807 10.7039 11.7305 10.6995L11.7305 10.6995C11.8396 10.6897 11.9367 10.681 12.032 10.6642C12.2189 10.6311 12.3174 10.5155 12.3165 10.3199C12.3156 10.1128 12.179 10.0328 12.0075 9.99629C11.9181 9.97738 11.8223 9.97909 11.7298 9.98511C11.6082 9.99285 11.5597 9.9387 11.5609 9.82309L11.561 9.8206C11.5644 9.49996 11.5678 9.17975 11.5691 8.85953C11.5695 8.73331 11.5703 8.60709 11.571 8.48088C11.5732 8.09181 11.5755 7.70282 11.5687 7.31406C11.5652 7.11164 11.4875 6.93027 11.2726 6.85979C11.0594 6.79016 10.8608 6.81767 10.7044 6.9956C10.6099 7.10261 10.5175 7.2122 10.4294 7.3248C10.2164 7.5967 10.0039 7.86899 9.7915 8.14127L9.79145 8.14134C9.37964 8.66913 8.96786 9.19689 8.55252 9.72166L8.52067 9.76167C8.37179 9.94802 8.22609 10.1304 8.34322 10.3891C8.46614 10.662 8.72486 10.6826 8.98015 10.696C9.0088 10.6974 9.03745 10.6969 9.0661 10.6964C9.08043 10.6962 9.09476 10.696 9.10908 10.696C9.23795 10.696 9.36681 10.6966 9.49567 10.6972C9.82492 10.6987 10.1541 10.7003 10.4831 10.6917C10.6662 10.6869 10.747 10.7312 10.7289 10.928C10.7139 11.0909 10.6992 11.2646 10.7401 11.4188C10.7745 11.5495 10.8613 11.7042 10.9717 11.7691C11.2433 11.9294 11.5463 11.7291 11.5695 11.3879C11.5799 11.2366 11.5774 11.0845 11.5749 10.9285ZM10.713 8.08121V9.95975H9.18558L9.70095 9.30114L10.6679 8.06531L10.6904 8.07325L10.713 8.08121ZM16.432 7.74513C16.3937 7.74322 16.3601 7.74115 16.3297 7.73926C16.2777 7.73603 16.2346 7.73336 16.1918 7.73309C16.0415 7.73281 15.8913 7.7329 15.7411 7.733H15.7405C15.4397 7.73319 15.1388 7.73338 14.838 7.73051C14.7318 7.72965 14.6214 7.71977 14.5208 7.68882C14.3343 7.63123 14.2819 7.47995 14.2887 7.29902C14.2956 7.11636 14.3988 7.02912 14.572 7.01107C14.595 7.00863 14.6181 7.00581 14.6411 7.00298C14.7034 6.99537 14.7657 6.98775 14.8281 6.98743C15.4869 6.98528 16.1458 6.98313 16.8046 6.98829L16.8415 6.98849C17.0366 6.98927 17.2438 6.9901 17.3509 7.20232C17.4586 7.41567 17.3444 7.59018 17.231 7.76333L17.2224 7.7765C17.1502 7.88704 17.0765 7.99675 17.0027 8.10648L17.0027 8.1065L17.0027 8.10652L17.0027 8.10654L17.0027 8.10655L17.0027 8.10657L17.0026 8.10659L17.0026 8.1066L17.0026 8.10662L17.0026 8.10664L17.0026 8.10666L17.0026 8.10667L17.0026 8.10669L17.0026 8.10671L17.0026 8.10672L17.0025 8.10674L17.0025 8.10676L17.0025 8.10678L17.0025 8.10679L17.0025 8.10681L17.0024 8.10691C16.8047 8.40107 16.6068 8.69538 16.4398 9.00609C16.1148 9.61078 15.9644 10.2752 15.8823 10.956C15.8604 11.1391 15.8136 11.3217 15.7547 11.4966C15.6872 11.6956 15.5282 11.7932 15.3189 11.77C15.1148 11.7472 14.9734 11.6114 14.9815 11.4145C14.9949 11.0896 15.0163 10.7557 15.104 10.4454C15.358 9.54545 15.7646 8.71212 16.3044 7.94626C16.3295 7.91061 16.3524 7.87355 16.3801 7.82855L16.3801 7.82847L16.3803 7.82814C16.3957 7.80326 16.4125 7.77596 16.432 7.74513ZM12.4378 11.5049L12.3449 12.0257C12.3534 12.2685 12.4308 12.3893 12.6092 12.4159C12.7811 12.4421 12.8868 12.3446 12.9461 12.1048C12.952 12.0808 12.9563 12.0568 12.9607 12.0325L12.9629 12.0205L13.0511 11.5323L13.0514 11.531L13.0514 11.5309L13.0514 11.5308L13.0514 11.5307L13.0514 11.5306L13.0514 11.5306L13.0514 11.5305L13.0515 11.5304L13.0515 11.5303L13.0515 11.5302L13.0515 11.5301L13.0515 11.5301L13.0515 11.53L13.0515 11.5299L13.0516 11.5298L13.0516 11.5297L13.0516 11.5296L13.0516 11.5296C13.1275 11.1092 13.2034 10.6889 13.2805 10.2688C13.3413 9.93607 13.4024 9.60344 13.4636 9.27083L13.4637 9.27031L13.4637 9.26978L13.4638 9.26925L13.4639 9.26872L13.464 9.26819L13.4641 9.26766L13.4642 9.26713L13.4643 9.26677L13.4644 9.26641L13.4644 9.26604L13.4645 9.26568L13.4646 9.26532L13.4646 9.26495L13.4647 9.26459L13.4648 9.26423L13.4648 9.26386L13.4649 9.2635L13.465 9.26313L13.465 9.26277L13.4651 9.26241L13.4652 9.26204L13.4652 9.26168L13.4653 9.26132L13.4654 9.26095L13.4654 9.26059C13.6194 8.42235 13.7734 7.58424 13.9234 6.74547C13.9428 6.63717 13.9505 6.50093 13.9006 6.41325C13.8504 6.32429 13.7262 6.23963 13.6264 6.22888C13.5547 6.22157 13.4489 6.32515 13.3965 6.40466C13.3519 6.472 13.3365 6.56116 13.3218 6.64666C13.3192 6.66156 13.3167 6.67635 13.314 6.69089C13.0828 7.94798 12.8533 9.2055 12.6246 10.463C12.5616 10.8101 12.4997 11.1575 12.4378 11.5049ZM19.0882 5.34423L18.9845 5.12693C18.9035 5.16828 18.8235 5.20889 18.7444 5.24906C18.489 5.37883 18.2424 5.50409 17.9985 5.63536C17.9612 5.65556 17.9242 5.7428 17.938 5.78019C17.9726 5.8751 18.0188 5.9657 18.0674 6.06089C18.0857 6.09674 18.1043 6.13323 18.1228 6.17086L18.5073 6.00535L19.2509 5.68521L19.0882 5.34423ZM19.2524 8.56126L19.2519 8.5613L18.7498 8.61026L18.7126 8.33714L18.678 8.08336C19.0803 8.01417 19.4684 7.94755 19.8853 7.87621L19.9759 8.49079C19.7284 8.51479 19.4901 8.53804 19.2524 8.56126ZM8.24996 1.56281L8.01773 0.792426L7.89453 0.383942L8.49321 0.221487L8.58658 0.634837L8.76397 1.4197C8.58991 1.46783 8.43433 1.51124 8.24996 1.56281ZM4.98668 3.43535C5.12506 3.31372 5.25142 3.20241 5.39023 3.07992L4.60976 2.12969L4.14475 2.53755C4.43313 2.84526 4.70474 3.13493 4.98668 3.43535ZM19.5457 6.46397L19.6199 6.71567L19.7215 7.0605C19.3154 7.1645 18.932 7.26292 18.5336 7.36564L18.4655 7.14599L18.3759 6.85721C18.7592 6.72785 19.1344 6.60193 19.5457 6.46397ZM12.0036 1.34234L12.5262 1.45107C12.5875 1.19811 12.6469 0.953456 12.7067 0.70698L12.7096 0.695209L12.7103 0.692127L12.7106 0.690851L12.8168 0.253721L12.2116 0.130375L12.1148 0.694629L12.1148 0.694681C12.0776 0.91073 12.0409 1.1246 12.0036 1.34234ZM14.85 2.41377L14.6629 2.30813C14.572 2.25685 14.4836 2.20695 14.3859 2.15161L14.4919 1.94738L14.9532 1.05912L15.2034 1.19943L15.4942 1.36254L15.4004 1.51556L15.3993 1.51733C15.2138 1.81992 15.0349 2.11166 14.85 2.41377ZM17.7029 3.23249L17.2976 2.79498C17.1318 2.96389 16.9714 3.12686 16.8116 3.28926L16.8106 3.29033L16.4346 3.67258L16.778 4.0366C16.9875 3.85413 17.1895 3.67864 17.3919 3.50276L17.7029 3.23249ZM17.2271 4.61206L17.6669 4.29184L18.2229 3.88703L18.3921 4.13543L18.5719 4.39933C18.3818 4.51871 18.197 4.63463 18.0121 4.75054L18.0109 4.75134L17.5314 5.05215L17.4344 4.91183L17.2271 4.61206ZM9.9321 0.0173442L9.31365 0.0732149L9.36731 0.456733L9.36745 0.457737L9.36822 0.463234L9.36886 0.467815C9.40819 0.748881 9.44626 1.02091 9.48513 1.29979C9.62514 1.28292 9.74765 1.26786 9.87151 1.25263L9.87157 1.25263L9.87173 1.25261L9.87177 1.2526L9.8718 1.2526L10.0125 1.23533L9.97228 0.626337L9.9321 0.0173442ZM13.2246 1.65479C13.3565 1.26455 13.4842 0.887209 13.6187 0.490957L14.1985 0.702836L14.117 0.899701L14.1166 0.900632C13.9859 1.21634 13.8592 1.5222 13.7279 1.84045C13.5845 1.78733 13.4521 1.73859 13.3141 1.68774L13.3139 1.68768L13.2246 1.65479ZM18.6097 11.1266C19.015 11.2126 19.4018 11.2946 19.8161 11.3827L19.9188 10.7712L19.2495 10.6788L18.7021 10.6031L18.6522 10.8858L18.6097 11.1266ZM7.06808 2.01236L7.00723 1.88518C6.85201 1.56081 6.70127 1.2458 6.53774 0.903538L6.98148 0.708148L7.10375 0.654268L7.16587 0.809401C7.29833 1.14019 7.427 1.46154 7.56275 1.79962C7.42975 1.85701 7.30444 1.91084 7.17056 1.96834L7.17036 1.96843L7.17016 1.96851L7.17005 1.96856L7.06808 2.01236ZM20 9.93784V9.35506H19.9973C19.5865 9.35506 19.1881 9.35506 18.7902 9.35463V9.87638L19.3733 9.90601L20 9.93784ZM15.8767 3.1504L15.4547 2.82076C15.5878 2.64029 15.7174 2.46417 15.8488 2.28562L15.8497 2.28436L16.1832 1.83142L16.6701 2.21134C16.3998 2.53153 16.1432 2.83538 15.8767 3.1504ZM3.36509 3.3696C3.30007 3.44756 3.23452 3.52615 3.16486 3.60983C3.44447 3.82719 3.70642 4.0313 3.97045 4.23703C4.02539 4.27984 4.08042 4.32272 4.13572 4.3658C4.23131 4.24961 4.31548 4.14776 4.40263 4.0423C4.42637 4.01357 4.45034 3.98457 4.47481 3.95494C4.3925 3.88108 4.31122 3.80814 4.23041 3.73563C4.00745 3.53554 3.78812 3.33871 3.56068 3.13493C3.49366 3.21543 3.42964 3.2922 3.36509 3.3696Z" fill="#FF1B6F"/>
</svg>
