<svg  viewBox="0 0 14 17" fill="none" xmlns="http://www.w3.org/2000/svg">
<path fill-rule="evenodd" clip-rule="evenodd" d="M7 1.5001C5.51479 1.5001 4.09041 2.0901 3.0402 3.1403C1.99 4.1905 1.4 5.61489 1.4 7.1001C1.4 9.26874 2.81102 11.3731 4.35817 13.0062C5.11743 13.8076 5.87907 14.4637 6.45167 14.9197C6.66478 15.0894 6.85092 15.2307 7 15.3409C7.14908 15.2307 7.33522 15.0894 7.54833 14.9197C8.12093 14.4637 8.88257 13.8076 9.64183 13.0062C11.189 11.3731 12.6 9.26874 12.6 7.1001C12.6 5.61489 12.01 4.1905 10.9598 3.1403C9.90959 2.0901 8.48521 1.5001 7 1.5001ZM7 16.2001C6.61171 16.7825 6.61153 16.7824 6.61133 16.7823L6.60933 16.7809L6.60467 16.7778L6.58862 16.767C6.57499 16.7577 6.55555 16.7444 6.53069 16.7272C6.48097 16.6928 6.40952 16.6426 6.31945 16.5775C6.13938 16.4475 5.88445 16.2577 5.57958 16.0149C4.97093 15.5302 4.15757 14.8301 3.34183 13.969C1.73898 12.2771 0 9.83146 0 7.1001C4.17233e-08 5.24358 0.737498 3.4631 2.05025 2.15035C3.36301 0.837595 5.14348 0.100098 7 0.100098C8.85651 0.100098 10.637 0.837595 11.9497 2.15035C13.2625 3.4631 14 5.24358 14 7.1001C14 9.83146 12.261 12.2771 10.6582 13.969C9.84243 14.8301 9.02907 15.5302 8.42042 16.0149C8.11555 16.2577 7.86062 16.4475 7.68055 16.5775C7.59048 16.6426 7.51903 16.6928 7.46931 16.7272C7.44445 16.7444 7.42501 16.7577 7.41138 16.767L7.39533 16.7778L7.39067 16.7809L7.38919 16.7819C7.38899 16.7821 7.38829 16.7825 7 16.2001ZM7 16.2001L7.38829 16.7825C7.15316 16.9393 6.84646 16.939 6.61133 16.7823L7 16.2001ZM7 5.7001C6.2268 5.7001 5.6 6.3269 5.6 7.1001C5.6 7.8733 6.2268 8.5001 7 8.5001C7.7732 8.5001 8.4 7.8733 8.4 7.1001C8.4 6.3269 7.7732 5.7001 7 5.7001ZM4.2 7.1001C4.2 5.5537 5.4536 4.3001 7 4.3001C8.5464 4.3001 9.8 5.5537 9.8 7.1001C9.8 8.64649 8.5464 9.9001 7 9.9001C5.4536 9.9001 4.2 8.64649 4.2 7.1001Z"/>
</svg>
