<svg width="32" height="32" fill="none" xmlns="http://www.w3.org/2000/svg"><g clip-path="url(#clip0_692_2905)"><path d="M32 0H0v32h32V0z" fill="#fff"/><path d="M22.76 17.39v10.07h-2.97V4.67h5.88c.75 0 1.4.27 1.94.81.54.53.82 1.19.82 1.93v7.25c0 .75-.27 1.39-.82 1.93-.54.53-1.19.81-1.94.81h-2.91v-.01zm0-9.86v7h1.97c.21 0 .38-.07.52-.2.13-.13.21-.3.21-.52V8.24a.717.717 0 00-.73-.73l-1.97.02z" fill="#FF1B6F"/><path d="M11 15.58l2.4-11.04h3.13v22.79h-2.88v-9.3l.13-4.35h-.03l-2.01 9.91h-1.56l-2-9.91h-.03l.13 4.35v9.3H5.4V4.54h3.13L11 15.58z" fill="#EFBD53"/></g><defs><clipPath id="clip0_692_2905"><rect width="32" height="32" rx="5" fill="#fff"/></clipPath></defs></svg>