<svg xmlns="http://www.w3.org/2000/svg" version="1.1" xmlns:xlink="http://www.w3.org/1999/xlink" xmlns:svgjs="http://svgjs.com/svgjs" id="Pattern1049SvgRootPreview" width="100%" height="100%"><defs><pattern x="0" y="0" width="3.3585858585858586" height="3.3585858585858586" patternUnits="userSpaceOnUse" id="Pattern1049Layer1" viewBox="0 0 3.3585858585858586 3.3585858585858586" preserveAspectRatio="xMidYMid slice"><g id="PatternRootContent1" transform="scale(3.3585858585858586) rotate(0)"><g id="Pattern1049Layer1background"><rect width="1" height="1" id="Pattern1049Background1" class="color_1 fill_color_1" fill="#ffb0a2"></rect></g></g></pattern><pattern x="0" y="0" width="221.66666666666666" height="137.7020202020202" patternUnits="userSpaceOnUse" id="Pattern1049Layer2" patternTransform="matrix(0.6,0,0,0.6,0,0)" viewBox="0 0 221.66666666666666 137.7020202020202" preserveAspectRatio="xMidYMid slice"><g id="PatternRootContent2" transform="scale(3.3585858585858586) rotate(0)"><g id="Pattern1049Layer2Element2"><use xlink:href="#Pattern1049Element2" x="-38.5" y="21" transform="translate(-16.5, 41) scale(1) translate(16.5, -41) rotate(90, -16.5, 41)"></use><use xlink:href="#Pattern1049Element2" x="-38.5" y="-20" transform="translate(-16.5, 0) scale(1) translate(16.5, 0) rotate(90, -16.5, 0)"></use><use xlink:href="#Pattern1049Element2" x="-5.5" y="0.5" transform="translate(16.5, 20.5) scale(1) translate(-16.5, -20.5) rotate(90, 16.5, 20.5)"></use><use xlink:href="#Pattern1049Element2" x="-5.5" y="-40.5" transform="translate(16.5, -20.5) scale(1) translate(-16.5, 20.5) rotate(90, 16.5, -20.5)"></use><use xlink:href="#Pattern1049Element2" x="-5.5" y="41.5" transform="translate(16.5, 61.5) scale(1) translate(-16.5, -61.5) rotate(90, 16.5, 61.5)"></use><use xlink:href="#Pattern1049Element2" x="27.5" y="21" transform="translate(49.5, 41) scale(1) translate(-49.5, -41) rotate(90, 49.5, 41)"></use><use xlink:href="#Pattern1049Element2" x="27.5" y="-20" transform="translate(49.5, 0) scale(1) translate(-49.5, 0) rotate(90, 49.5, 0)"></use><use xlink:href="#Pattern1049Element2" x="60.5" y="0.5" transform="translate(82.5, 20.5) scale(1) translate(-82.5, -20.5) rotate(90, 82.5, 20.5)"></use><use xlink:href="#Pattern1049Element2" x="60.5" y="0.5" transform="translate(82.5, 20.5) scale(1) translate(-82.5, -20.5) rotate(90, 82.5, 20.5)"></use></g></g></pattern><symbol id="Pattern1049Element2"><g class="color_3 fill_color_3" fill="#737373"><path d="M22,26c-7.72,0,-14,6.28,-14,14l4,0c0,-5.51,4.49,-10,10,-10s10,4.49,10,10l4,0c0,-7.72,-6.28,-14,-14,-14Zm0,-8C9.87,18,0,27.87,0,40l4,0c0,-9.92,8.08,-18,18,-18s18,8.08,18,18l4,0c0,-12.13,-9.87,-22,-22,-22Z"></path><path d="M22,14.000000953674316c7.72,0,14,-6.28,14,-14l-4,0c0,5.51,-4.49,10,-10,10s-10,-4.49,-10,-10l-4,0c0,7.72,6.28,14,14,14Zm0,8C34.13,22,44,12.13,44,5.066394805908203e-7l-4,0c0,9.92,-8.08,18,-18,18s-18,-8.08,-18,-18l-4,0c0,12.13,9.87,22,22,22Z"></path></g></symbol></defs><rect width="100%" height="100%" id="Pattern1049RctLayer1" fill="url(#Pattern1049Layer1)"></rect><rect width="100%" height="100%" id="Pattern1049RctLayer2" fill="url(#Pattern1049Layer2)"></rect></svg>