<?xml version="1.0" encoding="utf-8"?>
<!-- Generator: Adobe Illustrator 25.0.0, SVG Export Plug-In . SVG Version: 6.00 Build 0)  -->
<svg version="1.1" id="Pattern1049SvgRootPreview" xmlns:svgjs="http://svgjs.com/svgjs"
	 xmlns="http://www.w3.org/2000/svg" xmlns:xlink="http://www.w3.org/1999/xlink" x="0px" y="0px" viewBox="0 0 133 82.6"
	 style="enable-background:new 0 0 133 82.6;" xml:space="preserve">
<style type="text/css">
	.st0{fill:#E8E8E8;}
</style>
<g>
	<path class="st0" d="M7.1,36.3c-2.4,0-4.8-0.2-7.1-0.7v8.2c2.3,0.4,4.7,0.6,7.1,0.6V36.3z"/>
	<path class="st0" d="M37.3,41.3C37.3,21.3,53.6,5,73.6,5V3V0H57.5C46.8,4.2,38,12.4,33.3,22.9C28.5,12.4,19.7,4.2,9,0H0v5.7
		c16.6,3.3,29.2,18,29.2,35.6S16.6,73.6,0,76.9v5.7h9c10.7-4.2,19.4-12.5,24.2-22.9C38,70.2,46.7,78.4,57.5,82.6h16.1v-5
		C53.6,77.6,37.3,61.3,37.3,41.3z"/>
	<path class="st0" d="M21.2,41.3c0-13.1-9-24.2-21.2-27.3v13.3c2.3,0.6,4.6,0.9,7.1,0.9v-1.3c3.7,3.7,6,8.7,6,14.4
		c0,8.6-5.5,16-13.1,18.9v8.5C12.2,65.5,21.2,54.4,21.2,41.3z"/>
	<path class="st0" d="M59.4,54.4v1.3c-3.7-3.7-6-8.7-6-14.4c0-5.6,2.3-10.7,6-14.4v1.3C75,28.2,87.7,15.6,87.7,0h-8.1
		c0,5.6-2.3,10.7-6,14.4v-1.3c-15.6,0-28.2,12.7-28.2,28.2c0,15.6,12.7,28.2,28.2,28.2v-1.3c3.7,3.7,6,8.7,6,14.4v0h8.1v0
		C87.7,67.1,75,54.4,59.4,54.4z"/>
	<path class="st0" d="M111.8,82.6L111.8,82.6l8.1,0v0c0-5.6,2.3-10.7,6-14.4v1.3c2.4,0,4.8-0.3,7.1-0.9V55.3
		C120.8,58.4,111.8,69.5,111.8,82.6z"/>
	<path class="st0" d="M125.9,14.4c-3.7-3.7-6-8.7-6-14.4h-8.1c0,13.1,9,24.2,21.2,27.3V14c-2.3-0.6-4.6-0.9-7.1-0.9V14.4z"/>
	<path class="st0" d="M103.8,0h-8.1c0,20-16.3,36.3-36.3,36.3v2v6v2c20,0,36.3,16.3,36.3,36.3v0h8.1v0c0-17.6,12.6-32.3,29.2-35.6
		V35.6C116.4,32.3,103.8,17.6,103.8,0z M99.8,64.2C95,53.8,86.2,45.5,75.5,41.3C86.2,37.1,95,28.9,99.8,18.4
		c4.8,10.4,13.5,18.7,24.2,22.9C113.3,45.5,104.5,53.8,99.8,64.2z"/>
	<path class="st0" d="M125.9,82.6h7.1v-5.7c-2.3,0.5-4.6,0.7-7.1,0.7V82.6z"/>
	<path class="st0" d="M125.9,0v5c2.4,0,4.8,0.2,7.1,0.7V0H125.9z"/>
</g>
</svg>
