<svg width="84" height="84" fill="none" xmlns="http://www.w3.org/2000/svg"><path d="M0 0v84h84V0H0zm78.368 78.4H5.632V5.6h72.736v72.8z" fill="#FF1B6F"/><path d="M29.818 41.128L34.848 18H41.4v47.73h-6.026V46.262l.263-9.109h-.056l-4.205 20.757h-3.267l-4.186-20.757h-.075l.263 9.11V65.73h-6.026V18h6.552l5.18 23.128z" fill="#FF1B6F"/><path d="M54.44 44.907V66h-6.213V18.27H60.54c1.577 0 2.929.56 4.055 1.698 1.126 1.12 1.709 2.483 1.709 4.032v15.176c0 1.568-.564 2.912-1.709 4.032-1.126 1.12-2.497 1.699-4.055 1.699h-6.1zm0-20.646v14.654h4.13c.432 0 .789-.15 1.089-.43.282-.28.432-.634.432-1.082V25.755c0-.43-.15-.784-.432-1.083-.282-.28-.638-.43-1.089-.43h-4.13v.02z" fill="#EFBD53"/></svg>