<svg width="213" height="84" fill="none" xmlns="http://www.w3.org/2000/svg"><g clip-path="url(#clip0_54_133)"><path fill="#fff" d="M0 0h213v84H0z"/><path d="M41.684 18.648l-5.007 23.128-5.157-23.128H25v47.73h5.997V46.91l-.262-9.109h.075l4.167 20.757h3.25L42.414 37.8h.056l-.261 9.11v19.469h5.997V18.648h-6.52zM69.318 18.648h-14.33v47.73h14.33V60.2h-8.146V45.472h8.146V39.48h-8.146V24.845h8.146v-6.197zM82.94 36.885l5.137-18.237h6.129l-8.277 27.16v20.57h-6.185v-20.57l-8.22-27.16h6.072l5.343 18.237zM120.27 66.379l-10.874-29.232 9.959-18.499h-6.708l-8.669 16.221V18.648h-6.185v47.73h6.185V46.388l1.177-2.595 8.202 22.587h6.913z" fill="#FF1B6F"/><path d="M129.855 45.285V66.38h-6.184V18.648h12.257c1.569 0 2.914.56 4.035 1.699 1.121 1.12 1.701 2.482 1.701 4.032v15.176c0 1.568-.561 2.912-1.701 4.032-1.121 1.12-2.485 1.698-4.035 1.698h-6.073zm0-20.645v14.653h4.111c.43 0 .785-.149 1.083-.429.281-.28.43-.635.43-1.083V26.133c0-.429-.149-.784-.43-1.082-.28-.28-.635-.43-1.083-.43h-4.111v.019zm30.044-5.992c1.57 0 2.915.56 4.036 1.699 1.121 1.12 1.701 2.482 1.701 4.032v15.176c0 1.25-.374 2.389-1.14 3.378-.766 1.008-1.7 1.699-2.84 2.091l7.828 21.355h-6.651l-7.436-21.094h-1.57V66.38h-6.184V18.648h12.256zm-6.072 5.992v14.653h4.111c.429 0 .784-.149 1.083-.429.281-.28.43-.635.43-1.083V26.133c0-.429-.149-.784-.43-1.082-.28-.28-.635-.43-1.083-.43h-4.111v.019zm23.785 41.739c-1.569 0-2.915-.56-4.036-1.699-1.139-1.12-1.7-2.483-1.7-4.032v-36.27c0-1.567.561-2.911 1.7-4.031 1.121-1.12 2.485-1.699 4.036-1.699h6.521c1.569 0 2.915.56 4.036 1.699 1.121 1.12 1.7 2.482 1.7 4.032v36.269c0 1.568-.561 2.912-1.7 4.032-1.121 1.12-2.485 1.699-4.036 1.699h-6.521zm.467-7.486c0 .43.15.784.43 1.083.28.28.635.43 1.084.43h2.615c.43 0 .785-.15 1.084-.43.299-.28.43-.635.43-1.083v-32.76c0-.429-.15-.784-.43-1.082-.28-.28-.635-.43-1.084-.43h-2.615c-.43 0-.785.15-1.084.43-.28.28-.43.634-.43 1.082v32.76z" fill="#EFBD53"/><path d="M0 0v84h213V0H0zm207.395 78.4H5.605V5.6h201.79v72.8z" fill="#FF1B6F"/></g><defs><clipPath id="clip0_54_133"><path fill="#fff" d="M0 0h213v84H0z"/></clipPath></defs></svg>