<svg width="32" height="41" fill="none" xmlns="http://www.w3.org/2000/svg"><path fill-rule="evenodd" clip-rule="evenodd" d="M25.18 26.761c2.79-3.758 4.32-7.11 4.32-10.761 0-7.456-6.044-13.5-13.5-13.5S2.5 8.544 2.5 16c0 3.678 1.43 6.911 4.136 10.58 1.987 2.69 4.505 5.423 7.468 8.639.612.664 1.243 1.349 1.892 2.058.638-.699 1.261-1.377 1.87-2.039 2.823-3.071 5.31-5.776 7.314-8.477zm-7.495 12.375c.651-.714 1.293-1.413 1.924-2.098C26.514 29.525 32 23.558 32 16c0-8.837-7.163-16-16-16S0 7.163 0 16c0 7.603 5.182 13.227 12.362 21.02.634.688 1.285 1.394 1.948 2.12.555.605 1.118 1.225 1.69 1.86.567-.634 1.13-1.255 1.685-1.864z" fill="#FF1B6F"/><path d="M12.47 16.668l1.916-8.81h2.496V26.04h-2.296v-7.417l.1-3.47h-.02l-1.603 7.908H11.82l-1.595-7.908h-.029l.1 3.47v7.417H8V7.857h2.496l1.974 8.81z" fill="#FF1B6F"/><path d="M21.85 18.107v8.036h-2.367V7.96h4.69c.602 0 1.117.213 1.546.647.429.427.65.946.65 1.536v5.781c0 .598-.214 1.11-.65 1.536-.43.427-.952.647-1.545.647H21.85zm0-7.864v5.582h1.573c.164 0 .3-.057.415-.164a.555.555 0 00.164-.412V10.81a.562.562 0 00-.58-.576H21.85v.008z" fill="#EFBD53"/></svg>