<svg width="32" height="41" fill="none" xmlns="http://www.w3.org/2000/svg"><path d="M32 16c0 8.837-7.5 15.5-16 25C7 31 0 24.837 0 16S7.163 0 16 0s16 7.163 16 16z" fill="#FF1B6F"/><path d="M12.47 16.668l1.916-8.81h2.496V26.04h-2.296v-7.417l.1-3.47h-.02l-1.603 7.908H11.82l-1.595-7.908h-.029l.1 3.47v7.417H8V7.857h2.496l1.974 8.81zM21.85 18.107v8.036h-2.367V7.96h4.69c.602 0 1.117.213 1.546.647.429.427.65.946.65 1.536v5.781c0 .598-.214 1.11-.65 1.536-.43.427-.952.647-1.545.647H21.85zm0-7.864v5.582h1.573c.164 0 .3-.057.415-.164a.555.555 0 00.164-.412V10.81a.562.562 0 00-.58-.576H21.85v.008z" fill="#fff"/></svg>