<svg width="32" height="32" viewBox="0 0 32 32" fill="none" xmlns="http://www.w3.org/2000/svg">
<g clip-path="url(#clip0_692_2905)">
<path d="M32 0H0V32H32V0Z" fill="white"/>
<path d="M22.76 17.3899V27.4599H19.79V4.66992H25.67C26.42 4.66992 27.07 4.93992 27.61 5.47992C28.15 6.00992 28.43 6.66992 28.43 7.40992V14.6599C28.43 15.4099 28.16 16.0499 27.61 16.5899C27.07 17.1199 26.42 17.3999 25.67 17.3999H22.76V17.3899ZM22.76 7.52992V14.5299H24.73C24.94 14.5299 25.11 14.4599 25.25 14.3299C25.38 14.1999 25.46 14.0299 25.46 13.8099V8.23992C25.46 8.02992 25.39 7.86992 25.25 7.71992C25.12 7.58992 24.95 7.50992 24.73 7.50992L22.76 7.52992Z" fill="#FF1B6F"/>
<path d="M11 15.58L13.4 4.54004H16.53V27.33H13.65V18.03L13.78 13.68H13.75L11.74 23.59H10.18L8.18 13.68H8.15L8.28 18.03V27.33H5.4V4.54004H8.53L11 15.58Z" fill="#EFBD53"/>
</g>
<defs>
<clipPath id="clip0_692_2905">
<rect width="32" height="32" rx="5" fill="white"/>
</clipPath>
</defs>
</svg>
