<svg width="32" height="32" viewBox="0 0 32 32" fill="none" xmlns="http://www.w3.org/2000/svg">
<path d="M0 0V32H32V0L0 0ZM29.8546 29.8667H2.14542V2.13333H29.8546V29.8667Z" fill="#FF1B6F"/>
<path d="M11.3591 15.6678L13.2757 6.85718H15.7716V25.0403H13.476V17.6234L13.5761 14.1532H13.5546L11.9527 22.0607H10.7084L9.1136 14.1532H9.085L9.18512 17.6234V25.0403H6.88952V6.85718H9.38536L11.3591 15.6678Z" fill="#FF1B6F"/>
<path d="M20.7392 17.1074V25.143H18.3721V6.95984H23.0634C23.6641 6.95984 24.179 7.17317 24.6081 7.60695C25.0372 8.03362 25.2588 8.55273 25.2588 9.14295V14.9243C25.2588 15.5216 25.0443 16.0336 24.6081 16.4603C24.179 16.887 23.6569 17.1074 23.0634 17.1074H20.7392ZM20.7392 9.24251V14.8247H22.3125C22.477 14.8247 22.6128 14.7678 22.7273 14.6612C22.8345 14.5545 22.8917 14.4194 22.8917 14.2487V9.81139C22.8917 9.64784 22.8345 9.51273 22.7273 9.39895C22.62 9.29228 22.4841 9.23539 22.3125 9.23539H20.7392V9.24251Z" fill="#EFBD53"/>
</svg>
