<svg width="32" height="32" fill="none" xmlns="http://www.w3.org/2000/svg"><path d="M0 0v32h32V0H0zm29.855 29.867H2.145V2.133h27.71v27.734z" fill="#FF1B6F"/><path d="M11.36 15.668l1.916-8.81h2.496V25.04h-2.296v-7.417l.1-3.47h-.021l-1.602 7.908h-1.245l-1.594-7.908h-.029l.1 3.47v7.417H6.89V6.857h2.495l1.974 8.81z" fill="#FF1B6F"/><path d="M20.74 17.107v8.036h-2.368V6.96h4.691c.601 0 1.116.213 1.545.647.43.427.65.946.65 1.536v5.781c0 .598-.214 1.11-.65 1.536-.429.427-.951.647-1.545.647H20.74zm0-7.864v5.582h1.573c.164 0 .3-.057.414-.164a.556.556 0 00.165-.412V9.81a.562.562 0 00-.58-.576H20.74v.008z" fill="#EFBD53"/></svg>