<svg xmlns="http://www.w3.org/2000/svg" xmlns:xlink="http://www.w3.org/1999/xlink"><defs><pattern x="0" y="0" width="3.359" height="3.359" patternUnits="userSpaceOnUse" id="b" preserveAspectRatio="xMidYMid slice"><path class="color_1 fill_color_1" fill="#ffb0a2" d="M0 0h1v1H0z" transform="scale(3.35859)"/></pattern><pattern x="0" y="0" width="221.667" height="137.702" patternUnits="userSpaceOnUse" id="c" patternTransform="scale(.6)" preserveAspectRatio="xMidYMid slice"><g transform="scale(3.35859)"><use xlink:href="#a" x="-38.5" y="21" transform="rotate(90 -16.5 41)"/><use xlink:href="#a" x="-38.5" y="-20" transform="rotate(90 -16.5 0)"/><use xlink:href="#a" x="-5.5" y=".5" transform="rotate(90 16.5 20.5)"/><use xlink:href="#a" x="-5.5" y="-40.5" transform="rotate(90 16.5 -20.5)"/><use xlink:href="#a" x="-5.5" y="41.5" transform="rotate(90 16.5 61.5)"/><use xlink:href="#a" x="27.5" y="21" transform="rotate(90 49.5 41)"/><use xlink:href="#a" x="27.5" y="-20" transform="rotate(90 49.5 0)"/><use xlink:href="#a" x="60.5" y=".5" transform="rotate(90 82.5 20.5)"/><use xlink:href="#a" x="60.5" y=".5" transform="rotate(90 82.5 20.5)"/></g></pattern><symbol id="a"><g class="color_3 fill_color_3" fill="#737373"><path d="M22 26c-7.72 0-14 6.28-14 14h4c0-5.51 4.49-10 10-10s10 4.49 10 10h4c0-7.72-6.28-14-14-14zm0-8C9.87 18 0 27.87 0 40h4c0-9.92 8.08-18 18-18s18 8.08 18 18h4c0-12.13-9.87-22-22-22z"/><path d="M22 14c7.72 0 14-6.28 14-14h-4c0 5.51-4.49 10-10 10S12 5.51 12 0H8c0 7.72 6.28 14 14 14zm0 8c12.13 0 22-9.87 22-22h-4c0 9.92-8.08 18-18 18S4 9.92 4 0H0c0 12.13 9.87 22 22 22z"/></g></symbol></defs><rect width="100%" height="100%" fill="url(#b)"/><rect width="100%" height="100%" fill="url(#c)"/></svg>