<svg version="1.1" id="Pattern1049SvgRootPreview" xmlns="http://www.w3.org/2000/svg" x="0" y="0" viewBox="0 0 133 82.6" xml:space="preserve"><style>.st0{fill:#e8e8e8}</style><path class="st0" d="M7.1 36.3c-2.4 0-4.8-.2-7.1-.7v8.2c2.3.4 4.7.6 7.1.6v-8.1z"/><path class="st0" d="M37.3 41.3C37.3 21.3 53.6 5 73.6 5V0H57.5C46.8 4.2 38 12.4 33.3 22.9 28.5 12.4 19.7 4.2 9 0H0v5.7c16.6 3.3 29.2 18 29.2 35.6S16.6 73.6 0 76.9v5.7h9c10.7-4.2 19.4-12.5 24.2-22.9C38 70.2 46.7 78.4 57.5 82.6h16.1v-5c-20 0-36.3-16.3-36.3-36.3z"/><path class="st0" d="M21.2 41.3c0-13.1-9-24.2-21.2-27.3v13.3c2.3.6 4.6.9 7.1.9v-1.3c3.7 3.7 6 8.7 6 14.4 0 8.6-5.5 16-13.1 18.9v8.5c12.2-3.2 21.2-14.3 21.2-27.4zM59.4 54.4v1.3c-3.7-3.7-6-8.7-6-14.4 0-5.6 2.3-10.7 6-14.4v1.3C75 28.2 87.7 15.6 87.7 0h-8.1c0 5.6-2.3 10.7-6 14.4v-1.3c-15.6 0-28.2 12.7-28.2 28.2 0 15.6 12.7 28.2 28.2 28.2v-1.3c3.7 3.7 6 8.7 6 14.4h8.1c0-15.5-12.7-28.2-28.3-28.2zM111.8 82.6h8.1c0-5.6 2.3-10.7 6-14.4v1.3c2.4 0 4.8-.3 7.1-.9V55.3c-12.2 3.1-21.2 14.2-21.2 27.3zM125.9 14.4c-3.7-3.7-6-8.7-6-14.4h-8.1c0 13.1 9 24.2 21.2 27.3V14c-2.3-.6-4.6-.9-7.1-.9v1.3z"/><path class="st0" d="M103.8 0h-8.1c0 20-16.3 36.3-36.3 36.3v10c20 0 36.3 16.3 36.3 36.3h8.1c0-17.6 12.6-32.3 29.2-35.6V35.6c-16.6-3.3-29.2-18-29.2-35.6zm-4 64.2C95 53.8 86.2 45.5 75.5 41.3 86.2 37.1 95 28.9 99.8 18.4c4.8 10.4 13.5 18.7 24.2 22.9-10.7 4.2-19.5 12.5-24.2 22.9zM125.9 82.6h7.1v-5.7c-2.3.5-4.6.7-7.1.7v5zM125.9 0v5c2.4 0 4.8.2 7.1.7V0h-7.1z"/></svg>