<svg version="1.1" id="Pattern1049SvgRootPreview" xmlns="http://www.w3.org/2000/svg" xmlns:xlink="http://www.w3.org/1999/xlink" x="0" y="0" viewBox="0 0 612 792" xml:space="preserve"><style>.st1{fill:#737373}</style><pattern y="792" width="221.7" height="137.7" patternUnits="userSpaceOnUse" id="Pattern1049Layer2" viewBox="2537.4 -280.4 221.7 137.7" overflow="visible"><path fill="none" d="M2537.4-280.4h221.7v137.7h-221.7z"/><g id="PatternRootContent2_1_" transform="scale(3.35859)"><g id="Pattern1049Layer2Element2_1_"><path class="st1" d="M719-97.5v4c5.5 0 10 4.5 10 10s-4.5 10-10 10v4c7.7 0 14-6.3 14-14s-6.3-14-14-14zm0-8v4c9.9 0 18 8.1 18 18s-8.1 18-18 18v4c12.1 0 22-9.9 22-22s-9.9-22-22-22z"/><path class="st1" d="M759-69.5v-4c-5.5 0-10-4.5-10-10s4.5-10 10-10v-4c-7.7 0-14 6.3-14 14s6.3 14 14 14zm0 8v-4c-9.9 0-18-8.1-18-18s8.1-18 18-18v-4c-12.1 0-22 9.9-22 22s9.9 22 22 22zM719-56.5v4c5.5 0 10 4.5 10 10s-4.5 10-10 10v4c7.7 0 14-6.3 14-14s-6.3-14-14-14zm0-8v4c9.9 0 18 8.1 18 18s-8.1 18-18 18v4c12.1 0 22-9.9 22-22s-9.9-22-22-22z"/><path class="st1" d="M759-28.5v-4c-5.5 0-10-4.5-10-10s4.5-10 10-10v-4c-7.7 0-14 6.3-14 14s6.3 14 14 14zm0 8v-4c-9.9 0-18-8.1-18-18s8.1-18 18-18v-4c-12.1 0-22 9.9-22 22s9.9 22 22 22z"/><path class="st1" d="M752-77v4c5.5 0 10 4.5 10 10s-4.5 10-10 10v4c7.7 0 14-6.3 14-14s-6.3-14-14-14zm0-8v4c9.9 0 18 8.1 18 18s-8.1 18-18 18v4c12.1 0 22-9.9 22-22s-9.9-22-22-22z"/><path class="st1" d="M792-49v-4c-5.5 0-10-4.5-10-10s4.5-10 10-10v-4c-7.7 0-14 6.3-14 14s6.3 14 14 14zm0 8v-4c-9.9 0-18-8.1-18-18s8.1-18 18-18v-4c-12.1 0-22 9.9-22 22s9.9 22 22 22zM752-36v4c5.5 0 10 4.5 10 10s-4.5 10-10 10v4c7.7 0 14-6.3 14-14s-6.3-14-14-14zm0-8v4c9.9 0 18 8.1 18 18s-8.1 18-18 18v4c12.1 0 22-9.9 22-22s-9.9-22-22-22z"/><path class="st1" d="M792-8v-4c-5.5 0-10-4.5-10-10s4.5-10 10-10v-4c-7.7 0-14 6.3-14 14s6.3 14 14 14zm0 8v-4c-9.9 0-18-8.1-18-18s8.1-18 18-18v-4c-12.1 0-22 9.9-22 22s9.9 22 22 22z"/><defs><path id="SVGID_1_" d="M-934-1415.7h2660V639.8H-934z"/></defs><clipPath id="SVGID_2_"><use xlink:href="#SVGID_1_" overflow="visible"/></clipPath><g clip-path="url(#SVGID_2_)"><path class="st1" d="M752-118v4c5.5 0 10 4.5 10 10s-4.5 10-10 10v4c7.7 0 14-6.3 14-14s-6.3-14-14-14zm0-8v4c9.9 0 18 8.1 18 18s-8.1 18-18 18v4c12.1 0 22-9.9 22-22s-9.9-22-22-22z"/><path class="st1" d="M792-90v-4c-5.5 0-10-4.5-10-10s4.5-10 10-10v-4c-7.7 0-14 6.3-14 14s6.3 14 14 14zm0 8v-4c-9.9 0-18-8.1-18-18s8.1-18 18-18v-4c-12.1 0-22 9.9-22 22s9.9 22 22 22z"/></g><g><path class="st1" d="M785-97.5v4c5.5 0 10 4.5 10 10s-4.5 10-10 10v4c7.7 0 14-6.3 14-14s-6.3-14-14-14zm0-8v4c9.9 0 18 8.1 18 18s-8.1 18-18 18v4c12.1 0 22-9.9 22-22s-9.9-22-22-22z"/><path class="st1" d="M825-69.5v-4c-5.5 0-10-4.5-10-10s4.5-10 10-10v-4c-7.7 0-14 6.3-14 14s6.3 14 14 14zm0 8v-4c-9.9 0-18-8.1-18-18s8.1-18 18-18v-4c-12.1 0-22 9.9-22 22s9.9 22 22 22z"/></g><g><path class="st1" d="M785-56.5v4c5.5 0 10 4.5 10 10s-4.5 10-10 10v4c7.7 0 14-6.3 14-14s-6.3-14-14-14zm0-8v4c9.9 0 18 8.1 18 18s-8.1 18-18 18v4c12.1 0 22-9.9 22-22s-9.9-22-22-22z"/><path class="st1" d="M825-28.5v-4c-5.5 0-10-4.5-10-10s4.5-10 10-10v-4c-7.7 0-14 6.3-14 14s6.3 14 14 14zm0 8v-4c-9.9 0-18-8.1-18-18s8.1-18 18-18v-4c-12.1 0-22 9.9-22 22s9.9 22 22 22z"/></g><g><defs><path id="SVGID_3_" d="M-868-1374.7h2660V680.8H-868z"/></defs><clipPath id="SVGID_4_"><use xlink:href="#SVGID_3_" overflow="visible"/></clipPath><g clip-path="url(#SVGID_4_)"><path class="st1" d="M818-77v4c5.5 0 10 4.5 10 10s-4.5 10-10 10v4c7.7 0 14-6.3 14-14s-6.3-14-14-14zm0-8v4c9.9 0 18 8.1 18 18s-8.1 18-18 18v4c12.1 0 22-9.9 22-22s-9.9-22-22-22z"/><path class="st1" d="M858-49v-4c-5.5 0-10-4.5-10-10s4.5-10 10-10v-4c-7.7 0-14 6.3-14 14s6.3 14 14 14zm0 8v-4c-9.9 0-18-8.1-18-18s8.1-18 18-18v-4c-12.1 0-22 9.9-22 22s9.9 22 22 22z"/></g></g><g><defs><path id="SVGID_5_" d="M-868-1374.7h2660V680.8H-868z"/></defs><clipPath id="SVGID_6_"><use xlink:href="#SVGID_5_" overflow="visible"/></clipPath><g clip-path="url(#SVGID_6_)"><path class="st1" d="M818-77v4c5.5 0 10 4.5 10 10s-4.5 10-10 10v4c7.7 0 14-6.3 14-14s-6.3-14-14-14zm0-8v4c9.9 0 18 8.1 18 18s-8.1 18-18 18v4c12.1 0 22-9.9 22-22s-9.9-22-22-22z"/><path class="st1" d="M858-49v-4c-5.5 0-10-4.5-10-10s4.5-10 10-10v-4c-7.7 0-14 6.3-14 14s6.3 14 14 14zm0 8v-4c-9.9 0-18-8.1-18-18s8.1-18 18-18v-4c-12.1 0-22 9.9-22 22s9.9 22 22 22z"/></g></g></g></g></pattern><pattern id="Pattern1049RctLayer2_1_" xlink:href="#Pattern1049Layer2" patternTransform="matrix(.6 0 0 -.6 -2139.435 -13397.507)"/><path id="Pattern1049RctLayer2" fill="url(#Pattern1049RctLayer2_1_)" d="M0 0h612v792H0z"/></svg>