<svg width="213" height="84" viewBox="0 0 213 84" fill="none" xmlns="http://www.w3.org/2000/svg">
<path d="M41.6845 18.648L36.6771 41.776L31.5203 18.648H24.9995V66.3787H30.9971V46.9093L30.7355 37.8H30.8103L34.9768 58.5573H38.2279L42.4132 37.8H42.4692L42.2076 46.9093V66.3787H48.2053V18.648H41.6845Z" fill="white"/>
<path d="M69.3184 18.648H54.9876V66.3787H69.3184V60.2H61.1721V45.472H69.3184V39.48H61.1721V24.8453H69.3184V18.648Z" fill="white"/>
<path d="M82.9392 36.8853L88.0774 18.648H94.2058L85.9287 45.808V66.3787H79.7442V45.808L71.5232 18.648H77.5955L82.9392 36.8853Z" fill="white"/>
<path d="M120.27 66.3787L109.396 37.1467L119.355 18.648H112.647L103.978 34.8693V18.648H97.7932V66.3787H103.978V46.3867L105.155 43.792L113.357 66.3787H120.27Z" fill="white"/>
<path d="M129.855 45.2853V66.3787H123.671V18.648H135.928C137.497 18.648 138.842 19.208 139.963 20.3467C141.084 21.4667 141.664 22.8293 141.664 24.3787V39.5547C141.664 41.1227 141.103 42.4667 139.963 43.5867C138.842 44.7067 137.478 45.2853 135.928 45.2853H129.855ZM129.855 24.64V39.2933H133.966C134.396 39.2933 134.751 39.144 135.049 38.864C135.33 38.584 135.479 38.2293 135.479 37.7813V26.1333C135.479 25.704 135.33 25.3493 135.049 25.0507C134.769 24.7707 134.414 24.6213 133.966 24.6213H129.855V24.64ZM159.899 18.648C161.469 18.648 162.814 19.208 163.935 20.3467C165.056 21.4667 165.636 22.8293 165.636 24.3787V39.5547C165.636 40.8053 165.262 41.944 164.496 42.9333C163.73 43.9413 162.796 44.632 161.656 45.024L169.484 66.3787H162.833L155.397 45.2853H153.827V66.3787H147.643V18.648H159.899ZM153.827 24.64V39.2933H157.938C158.367 39.2933 158.722 39.144 159.021 38.864C159.302 38.584 159.451 38.2293 159.451 37.7813V26.1333C159.451 25.704 159.302 25.3493 159.021 25.0507C158.741 24.7707 158.386 24.6213 157.938 24.6213H153.827V24.64ZM177.612 66.3787C176.043 66.3787 174.697 65.8187 173.576 64.68C172.437 63.56 171.876 62.1973 171.876 60.648V24.3787C171.876 22.8107 172.437 21.4667 173.576 20.3467C174.697 19.2267 176.061 18.648 177.612 18.648H184.133C185.702 18.648 187.048 19.208 188.169 20.3467C189.29 21.4667 189.869 22.8293 189.869 24.3787V60.648C189.869 62.216 189.308 63.56 188.169 64.68C187.048 65.8 185.684 66.3787 184.133 66.3787H177.612ZM178.079 58.8933C178.079 59.3227 178.229 59.6773 178.509 59.976C178.789 60.256 179.144 60.4053 179.593 60.4053H182.208C182.638 60.4053 182.993 60.256 183.292 59.976C183.591 59.696 183.722 59.3413 183.722 58.8933V26.1333C183.722 25.704 183.572 25.3493 183.292 25.0507C183.012 24.7707 182.657 24.6213 182.208 24.6213H179.593C179.163 24.6213 178.808 24.7707 178.509 25.0507C178.229 25.3307 178.079 25.6853 178.079 26.1333V58.8933Z" fill="#C4C4C4"/>
<path d="M0 0V84H213V0H0ZM207.395 78.4H5.60526V5.6H207.395V78.4Z" fill="white"/>
</svg>
