<svg width="84" height="84" viewBox="0 0 84 84" fill="none" xmlns="http://www.w3.org/2000/svg">
<path d="M0 0V84H84V0L0 0ZM78.3683 78.4H5.63173V5.6H78.3683V78.4Z" fill="#FF1B6F"/>
<path d="M29.8178 41.128L34.8488 18H41.4003V65.7307H35.3744V46.2613L35.6372 37.152H35.5809L31.3759 57.9093H28.1095L23.9232 37.152H23.8481L24.1109 46.2613V65.7307H18.085V18H24.6366L29.8178 41.128Z" fill="#FF1B6F"/>
<path d="M54.4403 44.9067V66H48.2266V18.2693H60.5413C62.1182 18.2693 63.4698 18.8293 64.5962 19.968C65.7225 21.088 66.3045 22.4507 66.3045 24V39.176C66.3045 40.744 65.7413 42.088 64.5962 43.208C63.4698 44.328 62.0994 44.9067 60.5413 44.9067H54.4403ZM54.4403 24.2613V38.9147H58.5702C59.002 38.9147 59.3587 38.7653 59.659 38.4853C59.9406 38.2053 60.0908 37.8507 60.0908 37.4027V25.7547C60.0908 25.3253 59.9406 24.9707 59.659 24.672C59.3774 24.392 59.0208 24.2427 58.5702 24.2427H54.4403V24.2613Z" fill="#EFBD53"/>
</svg>
