<svg width="32" height="41" viewBox="0 0 32 41" fill="none" xmlns="http://www.w3.org/2000/svg">
<path fill-rule="evenodd" clip-rule="evenodd" d="M25.18 26.7613C27.9694 23.0029 29.5 19.6515 29.5 16C29.5 8.54415 23.4558 2.5 16 2.5C8.54416 2.5 2.5 8.54415 2.5 16C2.5 19.6777 3.92932 22.9111 6.63648 26.5791C8.6228 29.2705 11.141 32.0034 14.1038 35.2189C14.7158 35.8831 15.3468 36.5679 15.996 37.2772C16.6338 36.5782 17.2575 35.8998 17.8655 35.2384C20.689 32.167 23.1754 29.4622 25.18 26.7613ZM17.6853 39.1357C18.3362 38.4219 18.9783 37.7234 19.6085 37.0378C26.5141 29.5254 32 23.5575 32 16C32 7.16344 24.8366 0 16 0C7.16344 0 0 7.16344 0 16C0 23.6032 5.18228 29.2274 12.3619 37.0192C12.9965 37.708 13.6468 38.4137 14.3105 39.1392C14.8647 39.7451 15.4283 40.3648 16 41C16.5669 40.3664 17.1293 39.7455 17.6853 39.1357Z" fill="#FF1B6F"/>
<path d="M12.4696 16.6678L14.3862 7.85718H16.882V26.0403H14.5864V18.6234L14.6866 15.1532H14.6651L13.0632 23.0607H11.8188L10.2241 15.1532H10.1955L10.2956 18.6234V26.0403H8V7.85718H10.4958L12.4696 16.6678Z" fill="#FF1B6F"/>
<path d="M21.8496 18.1074V26.143H19.4825V7.95984H24.1738C24.7746 7.95984 25.2895 8.17317 25.7186 8.60695C26.1476 9.03362 26.3693 9.55273 26.3693 10.143V15.9243C26.3693 16.5216 26.1548 17.0336 25.7186 17.4603C25.2895 17.887 24.7674 18.1074 24.1738 18.1074H21.8496ZM21.8496 10.2425V15.8247H23.4229C23.5874 15.8247 23.7233 15.7678 23.8377 15.6612C23.945 15.5545 24.0022 15.4194 24.0022 15.2487V10.8114C24.0022 10.6478 23.945 10.5127 23.8377 10.399C23.7305 10.2923 23.5946 10.2354 23.4229 10.2354H21.8496V10.2425Z" fill="#EFBD53"/>
</svg>
