<svg width="32" height="41" viewBox="0 0 32 41" fill="none" xmlns="http://www.w3.org/2000/svg">
<path d="M32 16C32 24.8366 24.5 31.5 16 41C7 31 0 24.8366 0 16C0 7.16346 7.16344 2.15114e-05 16 2.15114e-05C24.8366 2.15114e-05 32 7.16346 32 16Z" fill="#FF1B6F"/>
<path d="M12.4696 16.6678L14.3862 7.85718H16.882V26.0403H14.5864V18.6234L14.6866 15.1532H14.6651L13.0632 23.0607H11.8188L10.2241 15.1532H10.1955L10.2956 18.6234V26.0403H8V7.85718H10.4958L12.4696 16.6678Z" fill="white"/>
<path d="M21.8496 18.1074V26.143H19.4825V7.95984H24.1738C24.7746 7.95984 25.2895 8.17317 25.7186 8.60695C26.1476 9.03362 26.3693 9.55273 26.3693 10.143V15.9243C26.3693 16.5216 26.1548 17.0336 25.7186 17.4603C25.2895 17.887 24.7674 18.1074 24.1738 18.1074H21.8496ZM21.8496 10.2425V15.8247H23.4229C23.5874 15.8247 23.7233 15.7678 23.8377 15.6612C23.945 15.5545 24.0022 15.4194 24.0022 15.2487V10.8114C24.0022 10.6478 23.945 10.5127 23.8377 10.399C23.7305 10.2923 23.5946 10.2354 23.4229 10.2354H21.8496V10.2425Z" fill="white"/>
</svg>
